<?xml version="1.0" encoding="UTF-8"?>
<svg id="Calque_2" data-name="Calque 2" xmlns="http://www.w3.org/2000/svg" viewBox="0 0 270.51 123.8">
  <defs>
    <style>
      .cls-1 {
        fill: #fff;
      }

      .cls-2 {
        fill: #f9b233;
      }
    </style>
  </defs>
  <g id="Calque_1-2" data-name="Calque 1">
    <g>
      <path class="cls-1" d="m13.06,24.3v9.94c2.04.64,4.76.98,6.6,1.35,0,1.2-.43,2.37-1,3.61l-13.77.03H.62c-.22-1.32-.62-2.65-.62-3.97,1.56-.18,3.27-.59,4.89-1.17V6.19c-1.59-.54-3.28-.95-4.87-1.13C.02,3.74.41,2.41.63,1.09h4.25c2.46,0,6.83-.48,10.64-.48,10.27,0,16.19,3.45,16.19,10.96,0,8.49-7.56,12.91-15.87,12.91-1.09,0-2.03-.08-2.79-.18Zm-.42-17.09v11.28c1.06.24,2.42.46,3.7.46,4.33,0,7.61-2.34,7.61-6.37,0-3.6-2.63-5.63-7.49-5.63-1.62,0-3.82.25-3.82.25Z"/>
      <path class="cls-1" d="m40.12,0c3.03,0,4.51,2.25,4.51,5.75,0,7.19-5.96,11.4-5.96,11.4-1.41-.15-2.34-.63-2.54-1.56,0,0,3.91-3.89,3.91-7.66,0-.57-3.81-.69-3.81-4.26,0-2.16,1.4-3.67,3.88-3.67h0Z"/>
      <path class="cls-1" d="m81.91,34.46c1.06.38,2.07.67,3.41.81,0,1.32-.4,2.65-.62,3.97h-16.1c-.23-1.32-.62-2.65-.62-3.97,1.52-.17,3.18-.57,4.76-1.12l-2.06-5.57h-15.15l-2.25,5.65c1.51.5,3.09.87,4.59,1.04,0,1.32-.4,2.65-.62,3.97h-13.68c-.22-1.32-.62-2.65-.62-3.97,1.27-.14,2.24-.4,3.24-.75l11.34-28.36c-1.56-.52-3.2-.92-4.75-1.09,0-1.32.4-2.65.62-3.97h3.29c3.92,0,7.88-.1,11.74-.44l13.45,33.81Zm-18.51-25.63l-5.52,13.88h10.64l-5.12-13.88Z"/>
      <path class="cls-1" d="m116.61,35.79s-5.22,4.33-13.27,4.39c-10.88.08-18.06-7.64-18.05-19.19.01-12.56,8.53-20.86,19.83-20.86,5.91,0,10.4,2.31,10.77,2.58v9.17c-1.32.22-2.65.62-3.97.62-.18-1.55-.59-3.25-1.16-4.86-1.45-.57-3.26-1.04-5.24-1.04-6.86,0-11.6,5.69-11.6,13.95,0,7.85,4.29,12.91,10.8,12.91,5.36,0,9.8-3.42,9.8-3.42,1.15.81,1.87,2.71,2.09,5.74Z"/>
      <path class="cls-1" d="m150.63,35.79s-5.22,4.33-13.27,4.39c-10.88.08-18.06-7.64-18.05-19.19.01-12.56,8.53-20.86,19.83-20.86,5.91,0,10.4,2.31,10.77,2.58v9.17c-1.32.22-2.65.62-3.97.62-.18-1.55-.59-3.25-1.16-4.86-1.45-.57-3.26-1.04-5.24-1.04-6.86,0-11.6,5.69-11.6,13.95,0,7.85,4.29,12.91,10.8,12.91,5.36,0,9.8-3.42,9.8-3.42,1.15.81,1.87,2.71,2.09,5.74Z"/>
      <path class="cls-1" d="m191.35,19.25c-.27,12.31-8.52,20.93-20.07,20.93-10.96,0-18.06-7.7-17.8-19.39.27-12.34,8.55-20.66,20.09-20.66,10.93,0,18.05,7.43,17.79,19.12Zm-29.27,1.14c.05,8.02,4.19,13.32,10.11,13.32,6.23,0,10.64-5.79,10.58-14.08-.05-8.03-4.2-13.03-10.11-13.03-6.24,0-10.63,5.51-10.58,13.78Z"/>
      <path class="cls-1" d="m230.36,35.26c0,1.32-.4,2.65-.62,3.97h-10.89c-3.44-4.71-6.39-10.53-8.31-16.43h-.27c-1.26,0-2.54-.12-3.58-.27v11.71c1.49.48,3.04.85,4.52,1.02,0,1.32-.4,2.65-.62,3.97h-16.35c-.22-1.32-.62-2.65-.62-3.97,1.56-.18,3.27-.59,4.89-1.16V6.2c-1.6-.54-3.29-.96-4.89-1.14,0-1.32.4-2.65.62-3.97h4.27c2.96,0,7.57-.5,11.36-.5,10.01-.01,15.45,3.44,15.45,10.21,0,5.58-3.63,8.98-7.96,10.68,2.22,4.92,5.53,9.22,9.2,13,1.26.37,2.55.65,3.79.79Zm-24.08-17.72c1.07.24,2.44.46,3.75.46,4.47,0,7.54-2.52,7.54-6.06,0-3.15-2.44-5.01-7.19-5-1.61,0-4.09.24-4.09.24v10.36Z"/>
      <path class="cls-1" d="m249.78.61c13.59,0,20.73,6.04,20.73,17.41,0,12.05-8.03,21.48-21.83,21.48-2.38,0-6.72-.27-11.2-.27h-4.27c-.23-1.32-.62-2.65-.62-3.97,1.56-.18,3.27-.59,4.89-1.16V6.2c-1.6-.54-3.28-.96-4.88-1.14,0-1.32.4-2.65.62-3.97h4.26c3.89,0,8.47-.48,12.3-.48h0Zm-.21,32.58c7.25-.08,12.35-6.02,12.35-14.45,0-7.89-4.46-11.54-11.49-11.67-1.51-.03-3.86.11-4.77.18v25.79c1.08.05,2.9.15,3.92.14h0Z"/>
      <path class="cls-2" d="m73.59,98.78c-.3,0-1.13-.38-1.44-.38-.6,0-1.59,1.06-3.02,3.1-1.13,1.59-1.89,2.95-2.42,4.08.23.38.83.76,1.81,1.06l-.15,1.81c-.61.38-.91.76-.91,1.13,0,.3.38,1.06.38,1.36.08,1.29-.38,3.4-1.21,6.2-.08.3-.45.91-1.13,1.89-.53.76-.83,1.36-.76,1.74-1.21,1.29-2.5,3.02-4.01,3.02-2.19,0-3.25-2.19-3.25-6.58,0-1.97,1.44-5.75,4.31-11.42,2.87-5.6,4.31-8.54,4.31-8.85s-.38-1.21-1.06-2.65c.23-.61.38-1.51.6-2.65,1.66-.76,2.8-1.36,3.48-1.74,1.44-.83,2.27-1.81,2.49-2.8.68-.68,1.51-2.49,2.65-5.29,1.13-3.1,1.74-5.37,1.74-6.88,0-.83-.15-1.29-.53-1.44h-2.12c-.23-.98.98-2.72,3.63-5.29s4.61-3.86,5.75-3.86c.6,0,1.36.38,2.34,1.13,1.13.83,1.89,1.36,2.19,1.44,7.26,2.65,10.89,6.43,10.89,11.49,0,1.97-.61,4.01-1.81,6.12-2.04,3.55-5.44,6.58-10.13,8.92l-12.63,5.29Zm-9.15,10.59c-1.59,2.12-1.89,4.46-2.42,6.8.53-.08,1.74-2.42,3.63-7.11l-1.21.3Zm15.2-27.29c-.76.53-1.51,1.89-2.19,4.08-.45,1.59-.91,3.18-1.44,4.76.23.23.23.6.15.98-.08.3-.23.6-.3.98,2.42-.08,5.97-1.97,10.59-5.52,4.84-3.71,7.26-6.65,7.26-8.92,0-1.13-1.44-2.57-4.38-4.23-2.8-1.51-4.84-2.27-6.12-2.34-2.27,4.46-3.48,7.86-3.55,10.21Z"/>
      <path class="cls-2" d="m106.97,82.6c-1.06,2.5-1.89,4.23-2.49,5.37l-1.74,3.1c-.83,1.66-1.29,2.87-1.29,3.63,0,.45.15.76.38.91,1.21-.08,2.95-.91,5.14-2.65,2.27-1.74,3.78-2.65,4.46-2.72.45.38.68.76.68,1.29,0,.83-.45,1.59-1.36,2.12-.98.83-1.74,1.44-2.19,1.89-.98.76-2.27,1.44-3.78,1.97-.08.08-1.44.53-4.08,1.36-.23.08-.68.38-1.36.91-.68.6-1.06.91-1.29.91-.38,0-1.21-.53-1.59-.53-.45,0-.91-.45-1.29-1.36-.38-.76-.53-1.44-.53-2.04,0-2.19,1.59-6.2,4.76-12.17,3.4-6.43,5.29-11.04,5.75-13.99.53-.08.91-.76,1.13-1.89.23-1.21.91-1.82,2.12-1.82.76,0,1.51.61,2.19,1.89.76,1.21,1.13,2.34,1.13,3.4,0,.53-.15.98-.38,1.29l.76.53c-1.89,2.72-4.01,4.99-5.14,8.62Zm8.62-24.12c-.3.23-.68.3-1.21.3-1.13,0-2.27-.53-3.55-1.51-1.29-1.06-1.89-2.04-1.89-2.87,0-.53.6-1.66.6-2.19.08,0,.3-.15.76-.45.3-.23.6-.38.83-.38.53,0,1.21.45,2.12,1.44l1.82,2.04c-.38.68-.6,1.06-.6,1.21,0,.38.38.6,1.13.68v1.74Z"/>
      <path class="cls-2" d="m146.1,79.8c-.23.38-1.81,1.74-4.76,4.08-2.5,1.97-3.63,3.48-3.55,4.61.08,1.59-.08,2.95-.45,3.93-.68,1.44-1.13,2.57-1.29,3.4-.83.68-2.04,1.66-3.78,2.8-2.49,0-3.63-1.82-3.25-5.44l-8.02,6.12c-3.86,2.65-6.73,4.01-8.69,4.01-2.42,0-4.61-1.66-4.61-4.08,0-1.59,1.66-4.16,4.92-7.56,2.65-2.65,5.07-4.84,7.33-6.43-.07-.45.23-.83.91-1.13l1.59-.68c2.65-1.74,4.23-2.72,4.91-3.02,1.29-.53,3.18-.98,5.6-1.21.83-.08,1.81-1.51,2.95-4.16,1.06-2.5,1.59-4.23,1.59-5.29,0-1.44-.38-2.12-1.21-2.12-.98,0-4.08,1.66-9.45,4.91-.68,1.13-2.04,2.5-4.01,4.16-2.12,1.74-3.71,2.72-4.76,2.95-.98.08-2.42-1.81-2.42-2.8,0-.68,1.51-2.34,4.54-4.91,2.5-2.12,4.46-3.63,5.9-4.46.68-.45,2.42-1.29,5.29-2.42,2.87-1.13,4.61-1.74,5.14-1.74.98,0,2.12.53,3.55,1.66s2.12,2.12,2.12,3.1c0,.83-.98,4.99-2.87,12.48,3.93-3.4,6.73-5.07,8.32-5.07.23,0,.45.08.6.15-.38.98-1.13,2.34-2.12,4.16Zm-24.42,13.61c.08-.08.23-.3.3-.53.91-.83,2.04-.83,2.34-1.06l5.22-4.31c.23-.38.83-.91,1.81-1.44v-1.21c-.08-.38-.3-.45-.83-.38-.68.08-1.51.38-2.65.83-1.44.23-4.16,2.04-8.17,5.52-4.01,3.4-5.97,5.67-5.82,6.8,1.74-.38,4.39-1.81,7.79-4.23Z"/>
      <path class="cls-2" d="m151.69,93.18c-1.74,1.51-2.65,2.27-2.8,2.27-.08,0-.38.38-.83,1.06-.53.91-.76,1.36-.83,1.36,0,0-.45.53-1.29,1.59s-1.44,1.59-1.66,1.59c.3,0-.38-.3-2.12-.91-.83-.3-1.21-.68-1.21-1.06s.83-1.74.91-2.42c.15-1.44.98-3.93,2.42-7.49,1.36-3.25,2.57-5.67,3.55-7.26-.15-.45-.61-.6-1.44-.45-.76.15-1.29.08-1.51-.15-.53-.53-.83-1.29-.83-2.12s.38-1.51,1.06-2.04c1.59-.68,3.48-1.81,5.6-3.4,1.66-1.29,2.87-1.89,3.71-1.89.38,0,.68.08.98.23.53.83.83,1.36.91,1.59.15.61.23,1.74.23,3.48,0,.23-.38,1.21-1.13,3.02-.76,1.74-1.13,3.02-1.13,3.78.76-.23,2.19-1.36,4.23-3.48,2.5-2.5,4.01-3.93,4.46-4.23l1.44-2.19c.53-.68,1.51-1.29,3.1-1.82,1.36-.45,2.57-.68,3.55-.68.53,1.13.91,1.89,1.06,2.42.23.68.38,1.51.45,2.57,1.06,1.21,1.59,2.12,1.59,2.72,0,.68-1.21,1.89-1.44,2.87-.15,1.29-.61,3.25-1.44,5.75-.23.23-.45.68-.68,1.21l-.15,1.66c.23.53.45.76.83.76.61,0,1.59-.76,3.03-2.19,1.44-1.44,2.27-2.19,2.65-2.19.53,0,1.36.76,1.36,1.29,0,1.59-.76,2.87-2.19,4.01-1.44,1.13-2.19,2.34-2.19,3.71l.61-.23.68.53c-2.04,1.89-3.86,2.8-5.29,2.8-4.23,0-6.35-1.74-6.35-5.22,0-1.66.53-4.01,1.66-7.11,1.36-3.86,2.12-6.05,2.19-6.58-.23-.38-.53-.61-.91-.61-.53,0-2.57,1.66-6.28,5.07s-5.59,5.29-5.67,5.82l-2.87,2.57Z"/>
      <path class="cls-2" d="m211.4,72.54c.53,0,.83.3.83.83,0,.45-.15,1.06-.45,1.81-.23.38-1.44,1.66-3.63,3.71-2.19,2.04-3.33,3.33-3.55,3.86-1.44,3.1-3.48,5.75-6.12,7.94-2.65,2.12-5.37,4.16-8.02,6.2l.83.3c-.83,1.13-2.42,1.74-4.69,1.97-.23.08-1.97.08-5.22.08-1.44,0-2.65-1.06-3.55-3.18-.68-1.66-1.06-3.33-1.06-5.07,0-1.29.38-3.4,1.21-6.35.83-3.02,1.59-4.99,2.27-5.97.3-.45.91-.98,1.82-1.59.38,0,.83-.08,1.29-.15,3.02-5.9,8.47-8.85,16.33-8.85,3.48,0,5.22,1.97,5.22,5.82,0,.68-.08,1.36-.15,2.19,3.4-2.34,5.67-3.55,6.65-3.55Zm-25.78,17.84c-1.59,0-2.95-.45-3.93-1.44-.08.3-.08.6-.08.98,0,1.81.76,2.95,2.19,3.33l5.59-1.66c2.8-.98,4.08-2.12,3.93-3.4-3.25,1.44-5.82,2.19-7.71,2.19Zm12.1-18.37c-2.04.08-4.61,1.59-7.56,4.39-3.1,2.95-4.69,5.52-4.69,7.86,0,1.13.38,1.97,1.21,2.65.53.23,1.36.45,2.49.68,2.8.23,5.6-1.13,8.54-3.93s4.46-5.59,4.46-8.39c0-.38-.83-1.44-.83-1.81-.98-.08-2.8-1.44-3.63-1.44Z"/>
    </g>
  </g>
</svg>