<?xml version="1.0" encoding="UTF-8"?>
<svg id="Calque_2" data-name="Calque 2" xmlns="http://www.w3.org/2000/svg" viewBox="0 0 646.62 171.66">
  <defs>
    <style>
      .cls-1 {
        fill: #fff;
      }

      .cls-2 {
        fill: #f9b233;
      }
    </style>
  </defs>
  <g id="Calque_1-2" data-name="Calque 1">
    <g>
      <path class="cls-1" d="m160.3,115.38V0h-5.79c.1,1.19.16,2.4.16,3.62,0,24.28-19.68,43.96-43.96,43.96V0h-5.63v115.38h-13.46v50.93h82.14v-50.93h-13.46Z"/>
      <polygon class="cls-1" points="66.37 115.38 66.37 0 0 0 0 166.31 79.83 166.31 79.83 115.38 66.37 115.38"/>
      <path class="cls-1" d="m265.64,0h-17.2c.1,1.19.16,2.4.16,3.62,0,24.28-19.68,43.96-43.96,43.96V0h-5.63v115.38h-13.46v50.93h80.08V0Z"/>
    </g>
    <g>
      <path class="cls-1" d="m329.31,49.03v12.25c2.51.79,5.87,1.21,8.13,1.67,0,1.48-.53,2.92-1.24,4.45l-16.97.04h-5.26c-.28-1.63-.76-3.26-.76-4.89,1.93-.22,4.03-.73,6.02-1.44V26.71c-1.96-.67-4.04-1.18-6-1.4,0-1.63.49-3.26.76-4.89h5.24c3.03,0,8.41-.59,13.11-.59,12.66,0,19.95,4.25,19.95,13.51,0,10.47-9.31,15.91-19.55,15.91-1.35,0-2.5-.1-3.43-.22Zm-.51-21.06v13.9c1.31.29,2.98.57,4.56.57,5.33,0,9.38-2.89,9.38-7.85,0-4.44-3.24-6.93-9.23-6.93-2,0-4.71.31-4.71.31Z"/>
      <path class="cls-1" d="m362.67,19.08c3.73,0,5.56,2.77,5.56,7.09,0,8.87-7.34,14.05-7.34,14.05-1.73-.18-2.89-.77-3.13-1.93,0,0,4.82-4.79,4.82-9.44,0-.7-4.69-.85-4.69-5.25,0-2.66,1.73-4.53,4.78-4.53h0Z"/>
      <path class="cls-1" d="m414.17,61.54c1.31.47,2.55.82,4.21,1,0,1.63-.49,3.26-.76,4.89h-19.84c-.28-1.63-.77-3.26-.77-4.89,1.88-.22,3.92-.7,5.86-1.38l-2.53-6.87h-18.67l-2.77,6.96c1.86.61,3.81,1.07,5.66,1.28,0,1.63-.49,3.26-.76,4.89h-16.86c-.27-1.63-.76-3.26-.76-4.89,1.56-.17,2.76-.49,3.99-.92l13.98-34.96c-1.92-.64-3.94-1.13-5.86-1.35,0-1.63.49-3.26.76-4.89h4.05c4.83,0,9.71-.12,14.47-.55l16.57,41.67Zm-22.82-31.59l-6.8,17.11h13.12l-6.32-17.11Z"/>
      <path class="cls-1" d="m456.94,63.19s-6.44,5.34-16.35,5.41c-13.4.1-22.26-9.41-22.25-23.65.02-15.48,10.52-25.71,24.44-25.71,7.28,0,12.82,2.84,13.27,3.19v11.31c-1.63.28-3.26.76-4.89.76-.22-1.92-.73-4.01-1.42-5.99-1.79-.7-4.01-1.28-6.46-1.28-8.45,0-14.3,7.02-14.3,17.19,0,9.68,5.28,15.91,13.32,15.91,6.61,0,12.07-4.22,12.07-4.22,1.42,1,2.31,3.33,2.57,7.08Z"/>
      <path class="cls-1" d="m498.86,63.19s-6.44,5.34-16.35,5.41c-13.4.1-22.26-9.41-22.25-23.65.02-15.48,10.52-25.71,24.44-25.71,7.28,0,12.82,2.84,13.27,3.19v11.31c-1.63.28-3.26.76-4.89.76-.22-1.92-.73-4.01-1.42-5.99-1.79-.7-4.01-1.28-6.46-1.28-8.45,0-14.3,7.02-14.3,17.19,0,9.68,5.28,15.91,13.32,15.91,6.61,0,12.07-4.22,12.07-4.22,1.42,1,2.31,3.33,2.57,7.08Z"/>
      <path class="cls-1" d="m549.05,42.8c-.33,15.17-10.5,25.8-24.74,25.8-13.5,0-22.26-9.5-21.94-23.89.33-15.21,10.54-25.46,24.76-25.46,13.47,0,22.24,9.16,21.92,23.56Zm-36.08,1.41c.06,9.89,5.16,16.42,12.46,16.42,7.68,0,13.11-7.14,13.04-17.36-.06-9.9-5.18-16.05-12.46-16.05-7.69,0-13.11,6.79-13.04,16.99Z"/>
      <path class="cls-1" d="m597.13,62.54c0,1.63-.49,3.26-.76,4.89h-13.42c-4.23-5.8-7.88-12.98-10.25-20.25h-.34c-1.56,0-3.12-.15-4.41-.33v14.43c1.83.6,3.75,1.05,5.57,1.25,0,1.63-.49,3.26-.76,4.89h-20.15c-.28-1.63-.77-3.26-.77-4.89,1.93-.22,4.03-.73,6.03-1.43V26.71c-1.98-.67-4.06-1.18-6.03-1.4,0-1.63.49-3.26.76-4.89h5.27c3.65,0,9.33-.61,14-.61,12.33-.01,19.04,4.24,19.04,12.58,0,6.88-4.47,11.07-9.81,13.16,2.74,6.06,6.82,11.37,11.34,16.02,1.55.46,3.14.8,4.67.97Zm-29.68-21.84c1.32.29,3.01.57,4.62.57,5.51,0,9.29-3.11,9.29-7.47,0-3.89-3-6.18-8.86-6.17-1.99,0-5.05.29-5.05.29v12.77Z"/>
      <path class="cls-1" d="m621.07,19.83c16.75,0,25.55,7.45,25.55,21.46,0,14.85-9.89,26.47-26.91,26.47-2.94,0-8.28-.34-13.81-.34h-5.26c-.28-1.63-.77-3.26-.77-4.89,1.93-.22,4.03-.73,6.02-1.43V26.71c-1.97-.67-4.05-1.18-6.02-1.4,0-1.63.49-3.26.76-4.89h5.26c4.79,0,10.44-.59,15.16-.59h0Zm-.26,40.16c8.94-.1,15.22-7.42,15.22-17.81,0-9.73-5.5-14.22-14.17-14.38-1.86-.03-4.75.13-5.88.23v31.78c1.33.06,3.57.19,4.83.17h0Z"/>
      <path class="cls-2" d="m403.91,140.82c-.37,0-1.4-.47-1.77-.47-.74,0-1.96,1.3-3.73,3.82-1.4,1.96-2.33,3.63-2.98,5.03.28.47,1.03.93,2.24,1.3l-.19,2.24c-.75.47-1.12.93-1.12,1.4,0,.37.47,1.3.47,1.68.09,1.59-.47,4.19-1.49,7.64-.09.37-.56,1.12-1.4,2.33-.65.93-1.03,1.68-.93,2.14-1.49,1.58-3.08,3.73-4.94,3.73-2.7,0-4.01-2.7-4.01-8.11,0-2.42,1.77-7.08,5.31-14.07,3.54-6.9,5.31-10.53,5.31-10.9s-.47-1.49-1.3-3.26c.28-.75.47-1.86.75-3.26,2.05-.93,3.45-1.68,4.29-2.14,1.77-1.03,2.79-2.24,3.07-3.45.84-.84,1.86-3.07,3.26-6.52,1.4-3.82,2.14-6.62,2.14-8.48,0-1.03-.19-1.59-.65-1.77h-2.61c-.28-1.21,1.21-3.36,4.47-6.52s5.68-4.75,7.08-4.75c.75,0,1.68.47,2.89,1.4,1.4,1.02,2.33,1.68,2.7,1.77,8.95,3.26,13.42,7.92,13.42,14.16,0,2.42-.75,4.94-2.24,7.55-2.52,4.38-6.71,8.11-12.49,11l-15.56,6.52Zm-11.28,13.05c-1.96,2.61-2.33,5.5-2.98,8.39.65-.09,2.14-2.98,4.47-8.76l-1.49.37Zm18.73-33.64c-.93.65-1.86,2.33-2.7,5.03-.56,1.96-1.12,3.91-1.77,5.87.28.28.28.75.19,1.21-.09.37-.28.75-.37,1.21,2.98-.09,7.36-2.42,13.05-6.8,5.96-4.57,8.95-8.2,8.95-11,0-1.4-1.77-3.17-5.4-5.22-3.45-1.86-5.97-2.79-7.55-2.89-2.79,5.5-4.29,9.69-4.38,12.58Z"/>
      <path class="cls-2" d="m445.05,120.88c-1.3,3.08-2.33,5.22-3.07,6.62l-2.14,3.82c-1.02,2.05-1.58,3.54-1.58,4.47,0,.56.19.93.47,1.12,1.49-.09,3.63-1.12,6.34-3.26,2.8-2.14,4.66-3.26,5.5-3.35.56.47.84.93.84,1.58,0,1.03-.56,1.96-1.68,2.61-1.21,1.02-2.14,1.77-2.7,2.33-1.21.93-2.79,1.77-4.66,2.42-.09.09-1.77.65-5.03,1.68-.28.09-.84.47-1.68,1.12-.84.75-1.3,1.12-1.58,1.12-.47,0-1.49-.65-1.96-.65-.56,0-1.12-.56-1.58-1.68-.47-.93-.65-1.77-.65-2.52,0-2.7,1.96-7.64,5.87-15,4.19-7.92,6.52-13.6,7.08-17.24.65-.09,1.12-.93,1.4-2.33.28-1.49,1.12-2.24,2.61-2.24.93,0,1.86.75,2.7,2.33.93,1.49,1.4,2.89,1.4,4.19,0,.65-.19,1.21-.47,1.58l.93.65c-2.33,3.35-4.94,6.15-6.34,10.62Zm10.62-29.73c-.37.28-.84.37-1.49.37-1.4,0-2.79-.65-4.38-1.86-1.58-1.3-2.33-2.52-2.33-3.54,0-.65.75-2.05.75-2.7.09,0,.37-.19.93-.56.37-.28.75-.47,1.03-.47.65,0,1.49.56,2.61,1.77l2.24,2.52c-.47.84-.75,1.3-.75,1.49,0,.47.46.75,1.4.84v2.14Z"/>
      <path class="cls-2" d="m493.28,117.43c-.28.47-2.24,2.14-5.87,5.03-3.08,2.42-4.47,4.29-4.38,5.68.09,1.96-.09,3.63-.56,4.85-.84,1.77-1.4,3.17-1.58,4.19-1.03.84-2.52,2.05-4.66,3.45-3.07,0-4.47-2.24-4.01-6.71l-9.88,7.55c-4.75,3.26-8.29,4.94-10.72,4.94-2.98,0-5.68-2.05-5.68-5.03,0-1.96,2.05-5.12,6.06-9.32,3.26-3.26,6.24-5.96,9.04-7.92-.09-.56.28-1.03,1.12-1.4l1.96-.84c3.26-2.14,5.22-3.35,6.06-3.73,1.58-.65,3.91-1.21,6.9-1.49,1.02-.09,2.24-1.86,3.63-5.12,1.3-3.08,1.96-5.22,1.96-6.52,0-1.77-.46-2.61-1.49-2.61-1.21,0-5.03,2.05-11.65,6.06-.84,1.4-2.52,3.08-4.94,5.12-2.61,2.14-4.57,3.35-5.87,3.63-1.21.09-2.98-2.24-2.98-3.45,0-.84,1.86-2.89,5.59-6.06,3.08-2.61,5.5-4.47,7.27-5.5.84-.56,2.98-1.58,6.52-2.98,3.54-1.4,5.68-2.14,6.34-2.14,1.21,0,2.61.65,4.38,2.05s2.61,2.61,2.61,3.82c0,1.03-1.21,6.15-3.54,15.38,4.85-4.19,8.3-6.24,10.25-6.24.28,0,.56.09.75.19-.46,1.21-1.4,2.89-2.61,5.13Zm-30.1,16.77c.09-.09.28-.37.37-.65,1.12-1.03,2.52-1.03,2.89-1.3l6.43-5.31c.28-.47,1.02-1.12,2.24-1.77v-1.49c-.09-.47-.37-.56-1.03-.47-.84.09-1.86.47-3.26,1.02-1.77.28-5.12,2.52-10.06,6.8-4.94,4.19-7.36,6.99-7.17,8.39,2.14-.47,5.41-2.24,9.6-5.22Z"/>
      <path class="cls-2" d="m500.17,133.92c-2.14,1.86-3.26,2.8-3.45,2.8-.09,0-.47.47-1.03,1.3-.65,1.12-.93,1.68-1.03,1.68,0,0-.56.65-1.58,1.96s-1.77,1.96-2.05,1.96c.37,0-.47-.37-2.61-1.12-1.02-.37-1.49-.84-1.49-1.3s1.03-2.14,1.12-2.98c.19-1.77,1.21-4.85,2.98-9.23,1.68-4.01,3.17-6.99,4.38-8.95-.19-.56-.75-.75-1.77-.56-.93.19-1.59.09-1.86-.19-.65-.65-1.03-1.58-1.03-2.61s.47-1.86,1.3-2.52c1.96-.84,4.29-2.24,6.9-4.19,2.05-1.58,3.54-2.33,4.57-2.33.46,0,.84.09,1.21.28.65,1.02,1.03,1.68,1.12,1.96.19.75.28,2.14.28,4.29,0,.28-.47,1.49-1.4,3.73-.93,2.14-1.4,3.73-1.4,4.66.93-.28,2.7-1.68,5.22-4.29,3.08-3.08,4.94-4.85,5.5-5.22l1.77-2.7c.65-.84,1.86-1.59,3.82-2.24,1.68-.56,3.17-.84,4.38-.84.65,1.4,1.12,2.33,1.3,2.98.28.84.47,1.86.56,3.17,1.3,1.49,1.96,2.61,1.96,3.36,0,.84-1.49,2.33-1.77,3.54-.19,1.58-.75,4.01-1.77,7.08-.28.28-.56.84-.84,1.49l-.19,2.05c.28.65.56.93,1.02.93.75,0,1.96-.93,3.73-2.7,1.77-1.77,2.79-2.7,3.26-2.7.65,0,1.68.93,1.68,1.59,0,1.96-.93,3.54-2.7,4.94-1.77,1.4-2.7,2.89-2.7,4.57l.75-.28.84.65c-2.52,2.33-4.75,3.45-6.52,3.45-5.22,0-7.83-2.14-7.83-6.43,0-2.05.65-4.94,2.05-8.76,1.68-4.75,2.61-7.46,2.7-8.11-.28-.47-.65-.75-1.12-.75-.65,0-3.17,2.05-7.73,6.24s-6.9,6.52-6.99,7.18l-3.54,3.17Z"/>
      <path class="cls-2" d="m573.77,108.49c.65,0,1.03.37,1.03,1.03,0,.56-.19,1.3-.56,2.24-.28.47-1.77,2.05-4.47,4.57-2.7,2.52-4.1,4.1-4.38,4.75-1.77,3.82-4.29,7.08-7.55,9.78-3.26,2.61-6.62,5.13-9.88,7.64l1.03.37c-1.03,1.4-2.98,2.14-5.78,2.42-.28.09-2.42.09-6.43.09-1.77,0-3.26-1.3-4.38-3.91-.84-2.05-1.3-4.1-1.3-6.24,0-1.58.47-4.19,1.49-7.83,1.03-3.73,1.96-6.15,2.79-7.36.37-.56,1.12-1.21,2.24-1.96.47,0,1.02-.09,1.58-.19,3.73-7.27,10.44-10.9,20.13-10.9,4.29,0,6.43,2.42,6.43,7.18,0,.84-.09,1.68-.19,2.7,4.19-2.89,6.99-4.38,8.2-4.38Zm-31.77,21.99c-1.96,0-3.63-.56-4.85-1.77-.09.37-.09.75-.09,1.21,0,2.24.93,3.63,2.7,4.1l6.89-2.05c3.45-1.21,5.03-2.61,4.85-4.19-4.01,1.77-7.17,2.7-9.5,2.7Zm14.91-22.64c-2.52.09-5.68,1.96-9.32,5.41-3.82,3.63-5.78,6.8-5.78,9.69,0,1.4.47,2.42,1.49,3.26.65.28,1.68.56,3.07.84,3.45.28,6.9-1.4,10.53-4.85s5.5-6.9,5.5-10.34c0-.47-1.02-1.77-1.02-2.24-1.21-.09-3.45-1.77-4.47-1.77Z"/>
    </g>
  </g>
</svg>