<svg width="21" height="21" viewBox="0 0 21 21" fill="none" xmlns="http://www.w3.org/2000/svg">
<path d="M16.9871 20C7.9511 20 0.625977 12.6749 0.625977 3.63889C0.625977 3.23121 0.640891 2.82702 0.670194 2.42683C0.703824 1.96754 0.720639 1.73791 0.840993 1.52886C0.94068 1.35573 1.11734 1.19154 1.29729 1.10476C1.51455 1 1.76796 1 2.27476 1H5.24859C5.67478 1 5.88788 1 6.07055 1.07014C6.23192 1.1321 6.3756 1.23274 6.48898 1.36322C6.61732 1.51092 6.69014 1.71119 6.8358 2.11172L8.06669 5.49672C8.23611 5.96273 8.32087 6.19573 8.30652 6.41679C8.29385 6.61172 8.22724 6.79931 8.1143 6.95867C7.98622 7.13941 7.77362 7.26697 7.34842 7.52209L5.90375 8.38889C7.17243 11.1849 9.43997 13.4555 12.2371 14.7222L13.1039 13.2776C13.359 12.8523 13.4866 12.6397 13.6673 12.5117C13.8267 12.3987 14.0142 12.3321 14.2092 12.3195C14.4302 12.3051 14.6633 12.3899 15.1293 12.5593L18.5143 13.7902C18.9147 13.9358 19.1151 14.0087 19.2628 14.137C19.3932 14.2504 19.4939 14.3941 19.5558 14.5554C19.626 14.7381 19.626 14.9512 19.626 15.3774V18.3512C19.626 18.858 19.626 19.1114 19.5212 19.3287C19.4344 19.5086 19.2703 19.6853 19.0971 19.785C18.888 19.9053 18.6585 19.9221 18.1992 19.9558C17.7989 19.9851 17.3947 20 16.9871 20Z" stroke="black" stroke-linecap="round" stroke-linejoin="round"/>
</svg>
