<svg width="18" height="18" viewBox="0 0 18 18" fill="none" xmlns="http://www.w3.org/2000/svg">
<path fill-rule="evenodd" clip-rule="evenodd" d="M18 17.0078C18 17.5527 17.5596 18 17.0078 18H12.4189V11.0293H14.7588L15.1084 8.31201H12.4189V6.58008C12.4189 5.79053 12.6357 5.25977 13.7676 5.25977H15.2061V2.82227C14.9551 2.78711 14.1025 2.71729 13.1104 2.71729C11.0361 2.71729 9.61816 3.98145 9.61816 6.30762V8.31201H7.27148V11.0293H9.61816V18H0.991699C0.447266 18 0 17.5596 0 17.0078V0.991699C0 0.447266 0.447266 0 0.991699 0H17.0078C17.5527 0 18 0.439941 18 0.991699V17.0078Z" fill="white"/>
</svg>
