<svg width="18" height="18" viewBox="0 0 18 18" fill="none" xmlns="http://www.w3.org/2000/svg">
<path d="M17.64 9.20467C17.64 8.56649 17.5827 7.95286 17.4764 7.36377H9V10.8492H13.8436C13.6309 11.9701 12.9927 12.9192 12.0355 13.5574V15.8237H14.9564C16.6582 14.2528 17.64 11.9456 17.64 9.20467Z" fill="white"/>
<path d="M8.99939 18C11.4294 18 13.4667 17.1982 14.9558 15.8237L12.0348 13.5573C11.233 14.0973 10.2103 14.4246 8.99939 14.4246C6.65939 14.4246 4.67121 12.8455 3.95939 10.7183H0.964844V13.0419C2.44575 15.9791 5.48121 18 8.99939 18Z" fill="white"/>
<path d="M3.96 10.7099C3.78 10.1699 3.67364 9.5972 3.67364 8.99993C3.67364 8.40266 3.78 7.82993 3.96 7.28993V4.96631H0.965455C0.351818 6.17721 0 7.54357 0 8.99993C0 10.4563 0.351818 11.8226 0.965455 13.0335L3.29727 11.2172L3.96 10.7099Z" fill="white"/>
<path d="M8.99939 3.58362C10.3248 3.58362 11.503 4.0418 12.4439 4.92543L15.0212 2.34817C13.4585 0.891814 11.4294 0 8.99939 0C5.48121 0 2.44575 2.0209 0.964844 4.96634L3.95939 7.28997C4.67121 5.1627 6.65939 3.58362 8.99939 3.58362Z" fill="white"/>
</svg>
