<svg width="18" height="18" viewBox="0 0 18 18" fill="none" xmlns="http://www.w3.org/2000/svg">
<g clip-path="url(#clip0_150_1788)">
<path d="M9.00015 1.73937C11.365 1.73937 11.6451 1.7484 12.5791 1.79101C13.4426 1.83042 13.9115 1.97467 14.2236 2.09596C14.6083 2.23794 14.9563 2.46432 15.2419 2.75848C15.5361 3.04416 15.7625 3.39213 15.9045 3.77681C16.0257 4.08889 16.17 4.55784 16.2094 5.42135C16.252 6.35528 16.261 6.63537 16.261 9.00026C16.261 11.3651 16.252 11.6452 16.2094 12.5792C16.17 13.4427 16.0257 13.9116 15.9045 14.2237C15.7571 14.6057 15.5314 14.9526 15.2419 15.242C14.9525 15.5315 14.6056 15.7572 14.2236 15.9046C13.9115 16.0258 13.4426 16.1701 12.5791 16.2095C11.6453 16.2521 11.3652 16.2611 9.00015 16.2611C6.63509 16.2611 6.3551 16.2521 5.42125 16.2095C4.55774 16.1701 4.08882 16.0258 3.77671 15.9046C3.39202 15.7626 3.04405 15.5362 2.75837 15.242C2.46422 14.9564 2.23783 14.6084 2.09585 14.2237C1.97456 13.9116 1.83028 13.4427 1.79091 12.5792C1.7483 11.6453 1.73926 11.3651 1.73926 9.00026C1.73926 6.63537 1.7483 6.35535 1.79091 5.42135C1.83032 4.55784 1.97456 4.08893 2.09585 3.77681C2.23785 3.39211 2.46426 3.04412 2.75844 2.75844C3.04412 2.46429 3.3921 2.2379 3.77678 2.09592C4.08886 1.97463 4.55781 1.83035 5.42132 1.79098C6.35524 1.74837 6.63533 1.73933 9.00022 1.73933M9.00022 0.143555C6.5949 0.143555 6.29319 0.15375 5.34868 0.196852C4.40597 0.239883 3.76219 0.389578 3.19884 0.608531C2.60789 0.830917 2.07255 1.17953 1.63017 1.63007C1.17954 2.07242 0.830823 2.60776 0.608355 3.19874C0.389578 3.76212 0.239883 4.4059 0.197027 5.34861C0.15375 6.29312 0.143555 6.59483 0.143555 9.00015C0.143555 11.4055 0.15375 11.7072 0.197027 12.6517C0.240059 13.5944 0.389754 14.2382 0.608707 14.8015C0.831093 15.3925 1.17971 15.9278 1.63024 16.3702C2.07262 16.8207 2.60796 17.1694 3.19891 17.3917C3.76229 17.6107 4.40607 17.7604 5.34875 17.8034C6.2934 17.8465 6.59501 17.8567 9.00029 17.8567C11.4056 17.8567 11.7073 17.8465 12.6518 17.8034C13.5945 17.7604 14.2383 17.6107 14.8017 17.3917C15.39 17.1642 15.9243 16.8163 16.3703 16.3702C16.8164 15.9242 17.1643 15.3899 17.3919 14.8015C17.6108 14.2382 17.7605 13.5944 17.8036 12.6517C17.8467 11.707 17.8569 11.4054 17.8569 9.00015C17.8569 6.59487 17.8467 6.29312 17.8036 5.34861C17.7605 4.4059 17.6108 3.76212 17.3919 3.19877C17.1695 2.60782 16.8209 2.07248 16.3703 1.6301C15.928 1.17948 15.3926 0.830788 14.8016 0.608355C14.2382 0.389578 13.5944 0.239883 12.6517 0.197027C11.7072 0.15375 11.4055 0.143555 9.00015 0.143555H9.00022Z" fill="white"/>
<path d="M9.00014 4.45215C8.10063 4.45215 7.22132 4.71888 6.47341 5.21862C5.7255 5.71836 5.14257 6.42866 4.79835 7.2597C4.45412 8.09073 4.36405 9.00518 4.53954 9.8874C4.71502 10.7696 5.14818 11.58 5.78423 12.216C6.42027 12.8521 7.23065 13.2853 8.11287 13.4607C8.99509 13.6362 9.90954 13.5462 10.7406 13.2019C11.5716 12.8577 12.2819 12.2748 12.7817 11.5269C13.2814 10.779 13.5481 9.89964 13.5481 9.00014C13.5481 7.79393 13.069 6.63714 12.2161 5.78422C11.3631 4.93131 10.2063 4.45215 9.00014 4.45215ZM9.00014 11.9523C8.41625 11.9523 7.84549 11.7792 7.36001 11.4548C6.87453 11.1304 6.49615 10.6693 6.27271 10.1299C6.04927 9.59042 5.99081 8.99684 6.10473 8.42417C6.21864 7.85151 6.49981 7.32549 6.91268 6.91262C7.32555 6.49975 7.85158 6.21859 8.42425 6.10468C8.99691 5.99078 9.59049 6.04924 10.1299 6.27269C10.6694 6.49613 11.1304 6.87452 11.4548 7.36C11.7792 7.84548 11.9523 8.41625 11.9523 9.00014C11.9523 9.78311 11.6413 10.534 11.0877 11.0876C10.534 11.6413 9.78311 11.9523 9.00014 11.9523Z" fill="white"/>
<path d="M13.7278 5.33502C14.3148 5.33502 14.7906 4.8592 14.7906 4.27225C14.7906 3.68529 14.3148 3.20947 13.7278 3.20947C13.1409 3.20947 12.665 3.68529 12.665 4.27225C12.665 4.8592 13.1409 5.33502 13.7278 5.33502Z" fill="white"/>
</g>
<defs>
<clipPath id="clip0_150_1788">
<rect width="18" height="18" fill="white"/>
</clipPath>
</defs>
</svg>
