<svg width="24" height="17" viewBox="0 0 24 17" fill="none" xmlns="http://www.w3.org/2000/svg">
<path d="M0.398902 0.762093C0.379765 0.769747 0.374023 2.3371 0.374023 8.51083V16.25H12H23.626V8.51083C23.626 1.47209 23.6241 0.771661 23.5954 0.760179C23.559 0.746782 0.433349 0.746782 0.398902 0.762093ZM21.7505 1.77063C21.7505 1.79934 13.2841 9.48684 13.0411 9.68013C12.6622 9.97676 12.3387 10.1126 12 10.1126C11.7053 10.1126 11.4297 10.0131 11.0948 9.78347C10.8862 9.63994 11.3685 10.0724 6.6798 5.82202C2.14232 1.70748 2.22652 1.78403 2.24183 1.76107C2.24758 1.7515 6.24155 1.74384 12.0019 1.74384C20.3497 1.74384 21.7505 1.74767 21.7505 1.77063ZM4.83878 5.46607C6.6664 7.12528 8.16295 8.49361 8.16295 8.50892C8.16295 8.53954 1.52418 14.5659 1.48973 14.5659C1.46868 14.5659 1.46486 13.3775 1.46486 8.50892C1.46486 3.55424 1.46868 2.45193 1.48973 2.45193C1.50313 2.45193 3.01116 3.80877 4.83878 5.46607ZM22.5256 8.50892C22.5256 13.0808 22.5198 14.5544 22.5026 14.5602C22.4911 14.564 22.2462 14.3535 21.9572 14.0932C21.6701 13.831 20.1774 12.478 18.6407 11.0829C17.1039 9.68969 15.8409 8.54145 15.8332 8.52997C15.8256 8.5204 15.8256 8.50126 15.8332 8.48787C15.8658 8.43428 22.4835 2.45001 22.5026 2.45767C22.5198 2.46341 22.5256 3.93125 22.5256 8.50892ZM9.20785 9.42943C9.90445 10.0629 10.3255 10.4188 10.6642 10.6542C11.4986 11.2398 12.0995 11.3259 12.821 10.9642C13.2688 10.7403 13.7166 10.3959 14.6295 9.57296C14.863 9.36053 15.0677 9.18829 15.083 9.19212C15.1271 9.20169 21.7505 15.2166 21.7505 15.2472C21.7505 15.2702 20.4396 15.274 12.0019 15.274C6.18414 15.274 2.24758 15.2663 2.24183 15.2568C2.23418 15.2472 2.28011 15.1917 2.33944 15.1343C2.71836 14.7745 8.89783 9.18829 8.91696 9.18829C8.93036 9.18829 9.06049 9.29738 9.20785 9.42943Z" fill="black"/>
</svg>
